
<svg class="root" version="1.1" id="Layer_1" xmlns="http://www.w3.org/2000/svg" xmlns:xlink="http://www.w3.org/1999/xlink" x="0px" y="0px"
	 width="100px" height="100px" viewBox="0 0 100 100" enable-background="new 0 0 100 100" xml:space="preserve">
<g>
	<circle class="svg_circleFora" fill="none" stroke="#00A9FF" stroke-miterlimit="10" stroke-dasharray="12.214,12.214" cx="49.9998" cy="50" r="46.6663"/>
</g>
<circle class="svg_circleDentro" fill="#127CB3" cx="49.9998" cy="50" r="37.9993"/>
<path fill="#FFFFFF" d="M34,60c0,2.209-1.791,4-4,4l0,0c-2.209,0-4-1.791-4-4V39c0-2.209,1.791-4,4-4l0,0c2.209,0,4,1.791,4,4V60z"
	/>
<path fill="#FFFFFF" d="M47,60c0,2.209-1.791,4-4,4l0,0c-2.209,0-4-1.791-4-4V39c0-2.209,1.791-4,4-4l0,0c2.209,0,4,1.791,4,4V60z"
	/>
<path fill="#FFFFFF" d="M61,60c0,2.209-1.791,4-4,4l0,0c-2.209,0-4-1.791-4-4V39c0-2.209,1.791-4,4-4l0,0c2.209,0,4,1.791,4,4V60z"
	/>
<path fill="#FFFFFF" d="M74,60c0,2.209-1.791,4-4,4l0,0c-2.209,0-4-1.791-4-4V39c0-2.209,1.791-4,4-4l0,0c2.209,0,4,1.791,4,4V60z"
	/>

        <style>
            .svg_circleDentro{
                
            }
            .svg_circleFora{
                transition: all 0.6s ease;
                transform-origin: center;
            }
            .root:hover .svg_circleFora{
                transform: rotateZ(60deg);
                stroke: darkred;
            }
            path{
                transition: all 0.6s ease;
            }
            .root:hover path{
                fill: orange;
                opacity: 0.8;
            }
        </style>

</svg>
